<?xml version="1.0" standalone="no"?>
<!DOCTYPE svg PUBLIC "-//W3C//DTD SVG 20010904//EN"
 "http://www.w3.org/TR/2001/REC-SVG-20010904/DTD/svg10.dtd">
<svg version="1.0" xmlns="http://www.w3.org/2000/svg"
 width="600.000000pt" height="600.000000pt" viewBox="0 0 600.000000 600.000000"
 preserveAspectRatio="xMidYMid meet">
<metadata>
Created by potrace 1.14, written by Peter Selinger 2001-2017
</metadata>
<g transform="translate(0.000000,600.000000) scale(0.100000,-0.100000)"
fill="#000000" stroke="none">
<path d="M0 3000 l0 -3000 3000 0 3000 0 0 3000 0 3000 -3000 0 -3000 0 0
-3000z m3235 1335 c136 -29 304 -106 274 -126 -9 -7 -5 -8 13 -3 20 4 29 2 34
-10 3 -9 10 -13 15 -10 5 3 9 1 9 -5 0 -5 9 -13 20 -16 11 -4 18 -11 15 -16
-4 -5 -13 -3 -21 5 -8 8 -23 18 -34 21 -12 4 -17 11 -14 18 4 7 3 8 -1 4 -15
-13 -14 -36 1 -30 11 4 14 -12 14 -86 0 -80 -2 -91 -17 -92 -15 0 -15 -2 2 -9
14 -6 15 -9 5 -10 -10 -1 -9 -4 5 -10 15 -7 9 -9 -27 -11 -27 -1 -61 -3 -77
-4 -18 -1 -49 11 -83 32 -86 53 -177 78 -293 78 -130 0 -217 -27 -322 -98
-223 -152 -310 -438 -208 -688 l25 -64 -41 -177 c-39 -163 -44 -176 -60 -164
-41 28 -132 154 -174 239 -153 311 -115 658 102 927 127 157 296 260 503 306
77 17 252 16 335 -1z m384 -241 c-14 -13 -15 -13 -13 8 1 13 3 25 3 28 1 2 6
-1 13 -8 10 -9 9 -16 -3 -28z m4 -101 c-7 -2 -19 -2 -25 0 -7 3 -2 5 12 5 14
0 19 -2 13 -5z m-137 -400 c126 -4 216 -10 199 -14 -23 -5 -25 -7 -8 -8 39 -2
36 -21 -4 -23 -26 -1 -18 -4 27 -8 36 -4 51 -7 35 -8 -29 -2 -30 -3 -27 -47 3
-28 0 -45 -7 -45 -14 0 -14 -65 -1 -91 7 -11 7 -19 1 -19 -5 0 -12 6 -14 13
-4 8 -6 7 -6 -4 -1 -8 11 -20 27 -27 24 -10 24 -11 2 -5 -14 3 -38 5 -55 4
-16 -1 -158 -5 -315 -9 l-284 -7 -53 -225 c-77 -330 -152 -655 -169 -733 -32
-156 -110 -301 -222 -419 -156 -163 -355 -257 -567 -270 l-60 -3 -3 147 -3
147 48 6 c151 18 258 69 358 170 116 116 114 110 285 825 83 349 153 641 155
648 5 14 287 16 661 5z m266 -243 c5 0 3 -7 -6 -15 -19 -19 -30 -19 -23 -1 3
8 3 17 -1 19 -4 2 -1 2 6 0 8 -1 18 -3 24 -3z m-25 -86 c2 -13 1 -15 -4 -4 -3
8 -11 19 -17 23 -7 6 -6 7 4 4 8 -2 16 -12 17 -23z m13 -51 c-11 -17 -11 -17
-6 0 3 10 7 33 8 50 l1 32 4 -32 c2 -18 -1 -41 -7 -50z m-30 49 c0 -4 -6 -14
-12 -21 -11 -11 -10 -13 5 -8 11 4 17 1 17 -8 0 -8 -9 -15 -19 -15 -11 0 -22
-4 -25 -9 -4 -5 2 -7 12 -4 16 4 17 -7 17 -154 0 -129 -3 -160 -15 -170 -13
-12 -13 -15 4 -28 19 -15 19 -15 -2 -38 -12 -13 -19 -27 -15 -30 9 -10 -28
-36 -51 -37 -11 0 -16 -3 -13 -7 9 -8 -83 -63 -153 -91 -92 -36 -170 -52 -287
-59 -93 -5 -113 -4 -113 8 0 8 14 73 31 146 l31 132 56 6 c191 20 349 107 440
245 22 32 43 56 47 52 4 -4 6 0 4 8 -1 8 3 28 9 43 7 16 12 33 12 38 0 5 5 9
10 9 6 0 10 -4 10 -8z m66 -394 c4 -7 3 -10 -1 -5 -5 4 -19 0 -31 -8 -23 -15
-54 -11 -54 6 0 13 18 11 22 -3 3 -8 11 -7 28 5 29 20 27 20 36 5z m-56 -63
c-13 -14 -28 -25 -34 -25 -13 0 35 49 48 49 5 1 -1 -10 -14 -24z"/>
<path d="M3646 3143 c-6 -14 -5 -15 5 -6 7 7 10 15 7 18 -3 3 -9 -2 -12 -12z"/>
<path d="M3671 3144 c0 -11 3 -14 6 -6 3 7 2 16 -1 19 -3 4 -6 -2 -5 -13z"/>
<path d="M3649 3083 c-6 -16 -6 -30 -1 -35 6 -6 11 4 14 26 5 43 1 46 -13 9z"/>
</g>
</svg>
